<?xml version="1.0" standalone="no"?>
<!DOCTYPE svg PUBLIC "-//W3C//DTD SVG 20010904//EN"
 "http://www.w3.org/TR/2001/REC-SVG-20010904/DTD/svg10.dtd">
<svg version="1.0" xmlns="http://www.w3.org/2000/svg"
 width="497.000000pt" height="497.000000pt" viewBox="0 0 497.000000 497.000000"
 preserveAspectRatio="xMidYMid meet">

<g transform="translate(0.000000,497.000000) scale(0.100000,-0.100000)"
fill="#000000" stroke="none">
<path d="M1233 4286 c-55 -25 -58 -38 -54 -282 2 -143 -1 -229 -8 -242 -9 -17
-22 -20 -112 -21 -144 -3 -208 -34 -250 -126 -18 -38 -19 -96 -19 -1339 0
-945 3 -1309 11 -1337 16 -50 61 -105 112 -132 l42 -22 1536 0 1536 0 49 30
c30 19 60 49 79 79 l30 49 3 1141 3 1141 -28 55 c-38 75 -99 116 -188 125 -63
7 -65 8 -65 36 0 15 -5 40 -12 54 -19 43 -56 55 -168 55 l-100 0 0 137 0 137
-235 236 -235 235 -947 2 c-790 2 -953 0 -980 -11z m1907 -191 c0 -217 7 -247
67 -271 28 -12 65 -15 148 -13 60 1 143 2 183 1 l72 -2 0 -130 0 -130 -955 0
-955 0 -32 -29 -33 -29 -3 -166 -3 -166 -220 0 -219 0 0 533 0 534 23 20 c12
11 29 23 37 26 8 3 437 6 953 6 l937 1 0 -185z m237 -45 c109 -110 200 -205
201 -210 2 -6 -63 -10 -178 -10 -245 0 -230 -15 -230 235 0 102 2 185 4 185 3
0 94 -90 203 -200z m-2209 -607 l-3 -278 -115 -5 c-126 -5 -162 -19 -215 -81
l-25 -31 0 262 c0 285 3 300 58 353 51 49 79 57 195 57 l107 0 -2 -277z m2677
81 c42 -17 45 -43 45 -454 l0 -390 -512 0 c-308 0 -527 4 -549 10 -56 16 -112
72 -178 179 -34 55 -61 102 -61 105 0 12 -73 111 -94 129 -63 53 -55 52 -461
57 l-380 5 0 158 0 159 28 24 28 24 1059 0 c582 0 1066 -3 1075 -6z m152 -143
c53 -1 118 -49 149 -111 23 -44 23 -51 24 -373 l0 -329 -26 32 c-40 47 -113
80 -179 80 l-55 0 0 348 c0 192 3 351 6 354 3 3 13 5 22 3 9 -2 36 -4 59 -4z
m-1606 -251 c83 -23 115 -59 220 -242 78 -135 109 -173 170 -203 l48 -25 578
0 c351 0 592 -4 614 -10 19 -5 54 -26 76 -45 77 -66 74 -24 71 -891 l-3 -770
-28 -42 c-15 -23 -46 -54 -69 -69 l-42 -28 -1515 -3 c-834 -1 -1530 0 -1547 3
-39 7 -116 73 -137 118 -15 30 -16 142 -18 1044 -1 993 -1 1011 19 1049 11 21
34 52 50 67 60 57 48 56 792 57 429 0 698 -4 721 -10z"/>
<path d="M1640 2386 c-185 -42 -345 -197 -416 -406 -28 -82 -26 -252 5 -339
24 -69 86 -172 141 -234 45 -52 186 -133 273 -157 86 -24 208 -26 287 -5 97
25 211 90 277 158 124 125 173 243 173 416 0 175 -48 290 -175 416 -79 80
-160 127 -256 150 -76 17 -231 18 -309 1z m353 -39 c133 -51 244 -154 307
-282 47 -97 59 -147 60 -245 0 -137 -44 -255 -140 -368 -30 -36 -60 -67 -66
-69 -7 -2 -13 21 -16 66 -9 120 -63 187 -185 231 -35 13 -63 28 -63 35 0 7 15
29 34 49 57 59 71 178 32 270 -18 44 -82 87 -140 93 -120 14 -210 -73 -209
-202 0 -70 18 -117 63 -169 40 -45 34 -54 -49 -81 -38 -13 -69 -32 -102 -65
-52 -52 -69 -95 -69 -177 0 -29 -4 -53 -9 -53 -14 0 -94 91 -129 147 -57 89
-74 147 -80 264 -4 91 -1 117 19 184 54 184 210 339 388 387 99 27 263 20 354
-15z m-105 -274 c39 -29 71 -93 72 -139 0 -54 -28 -128 -65 -167 -19 -20 -35
-41 -35 -46 0 -20 38 -50 84 -65 102 -33 151 -87 166 -182 20 -119 21 -115
-78 -163 -166 -79 -327 -77 -489 5 l-73 37 0 52 c0 123 54 207 157 244 82 30
88 34 91 69 2 24 -3 34 -21 47 -55 35 -84 166 -53 238 17 40 64 85 102 97 43
14 104 2 142 -27z"/>
<path d="M2763 2038 c6 -19 1018 -19 1025 0 3 9 -104 12 -513 12 -409 0 -516
-3 -512 -12z"/>
<path d="M2762 1598 c6 -17 1016 -19 1021 -3 1 7 -175 11 -511 13 -410 2 -513
0 -510 -10z"/>
</g>
</svg>
