<?xml version="1.0" standalone="no"?>
<!DOCTYPE svg PUBLIC "-//W3C//DTD SVG 20010904//EN"
 "http://www.w3.org/TR/2001/REC-SVG-20010904/DTD/svg10.dtd">
<svg version="1.0" xmlns="http://www.w3.org/2000/svg"
 width="327.000000pt" height="318.000000pt" viewBox="0 0 327.000000 318.000000"
 preserveAspectRatio="xMidYMid meet">

<g transform="translate(0.000000,318.000000) scale(0.100000,-0.100000)"
fill="#000000" stroke="none">
<path d="M1510 3057 l-115 -82 -3 -147 -3 -146 113 -78 c62 -42 124 -82 138
-87 22 -8 39 0 143 73 70 49 122 93 128 107 13 34 11 237 -2 267 -7 14 -17 27
-24 29 -6 3 -57 37 -112 76 -58 40 -111 71 -124 71 -14 0 -75 -37 -139 -83z"/>
<path d="M674 1844 c-60 -41 -117 -85 -126 -96 -15 -17 -18 -40 -18 -133 0
-61 5 -125 10 -141 12 -31 144 -129 161 -118 5 3 8 0 7 -6 -2 -7 6 -17 16 -23
11 -7 29 -20 40 -29 27 -24 49 -23 83 5 15 13 62 47 104 75 116 77 109 63 109
221 0 157 8 140 -110 223 -118 83 -143 98 -155 98 -6 0 -61 -34 -121 -76z"/>
<path d="M1512 1833 l-123 -85 2 -143 c1 -165 -11 -143 131 -242 106 -75 126
-86 144 -79 42 16 242 168 248 188 8 30 8 226 0 256 -7 24 -241 193 -266 191
-7 0 -68 -39 -136 -86z"/>
<path d="M2380 1844 c-58 -41 -113 -84 -122 -95 -15 -18 -18 -42 -18 -146 0
-68 4 -132 9 -142 10 -18 131 -107 131 -95 0 3 14 -7 31 -24 16 -16 46 -38 64
-48 l34 -18 73 49 c40 28 98 69 130 92 l58 43 0 138 c0 120 -2 141 -17 154
-45 40 -238 168 -252 167 -9 0 -63 -34 -121 -75z"/>
<path d="M234 607 l-119 -83 0 -149 0 -149 40 -28 c22 -16 59 -42 83 -58 24
-17 48 -27 54 -24 6 4 8 2 4 -4 -7 -12 53 -52 78 -52 26 0 243 152 255 178 14
29 14 247 1 272 -13 24 -237 180 -259 180 -9 0 -71 -37 -137 -83z"/>
<path d="M1090 610 c-63 -44 -118 -88 -121 -98 -4 -9 -7 -74 -8 -145 l-2 -127
33 -30 c18 -17 36 -30 40 -30 4 0 44 -27 90 -60 46 -33 92 -60 103 -60 22 0
231 139 253 167 8 12 12 59 12 148 0 112 -3 134 -17 149 -38 37 -232 166 -249
166 -11 0 -71 -36 -134 -80z"/>
<path d="M1950 614 c-58 -41 -111 -81 -118 -88 -11 -10 -17 -156 -13 -278 1
-27 228 -188 263 -188 13 1 75 38 138 83 l115 83 3 146 3 147 -123 85 c-68 47
-132 86 -143 85 -11 0 -67 -34 -125 -75z"/>
<path d="M2794 607 l-119 -82 0 -150 0 -150 70 -47 c39 -26 75 -51 80 -56 36
-29 92 -62 108 -62 10 0 72 36 137 81 133 91 127 80 129 227 2 145 2 144 -133
240 -64 45 -125 82 -135 82 -10 0 -72 -37 -137 -83z"/>
</g>
</svg>
